<?xml version="1.0" encoding="utf-8"?>
<!-- Generator: Adobe Illustrator 28.1.0, SVG Export Plug-In . SVG Version: 6.00 Build 0)  -->
<svg version="1.1" id="Layer_1" xmlns="http://www.w3.org/2000/svg" xmlns:xlink="http://www.w3.org/1999/xlink" x="0px" y="0px"
	 viewBox="0 0 210 100.2" style="enable-background:new 0 0 210 100.2;" xml:space="preserve">
<style type="text/css">
	.st0{fill:#FFFFFF;stroke:#077DDD;stroke-miterlimit:10;}
</style>
<g>
	<g>
		<g>
			<path class="st0" d="M182.2,99.1h-41.9l-14-19.6H176c2.6,0,4.8-0.1,7.3-0.4c4.6-0.6,4.4-6.3,4-9.8c-0.2-1.7-1.4-3.1-2.9-3.7
				c-2.7-1.2-5.4-2.1-8.4-2.8l-29.5-7.7c-7-1.8-14.3-4.8-16.2-12.4c-0.5-2.1-0.9-4.3-0.9-6.5V20.5c0-2.6,0.4-5.1,1-7.5
				c2.4-10.2,11.8-13.1,21.4-13.4h55.3l-10.7,20.5h-32.1l-10,0.2c-4.7,0.6-4.2,6.2-3.9,10c0.2,2.4,1.9,4.1,4.2,4.7l35.4,8.9
				c3.5,0.9,6.7,2.2,9.9,3.7c10.3,4.7,9.7,14.8,9.7,24.3c0,4.2,0.1,8.2-0.8,12.3C206.1,97.3,194.2,99.1,182.2,99.1L182.2,99.1z"/>
			<path class="st0" d="M69.1,99.1H43.9V82.5l8.9-8.1h16.3L69.1,99.1z"/>
			<path class="st0" d="M56.3,18.3c-1.6-0.4-2.6-1.9-2.4-3.3c0.2-1.5,1.6-2.8,3.2-2.7c1.9,0.1,3.3,1.7,3.1,3.4
				C60,17.4,58.3,18.7,56.3,18.3L56.3,18.3z"/>
			<g>
				<path class="st0" d="M9.1,51.4c-2.2,0-4,1.8-4,4s1.8,4,4,4s4-1.8,4-4C13.1,53.2,11.3,51.4,9.1,51.4z"/>
				<path class="st0" d="M33.7,34.5c0-2.2-1.8-4-4-4s-4,1.8-4,4s1.8,4,4,4S33.7,36.7,33.7,34.5z"/>
				<path class="st0" d="M23.6,76.8c-2.2,0-4,1.8-4,4s1.8,4,4,4s4-1.8,4-4S25.8,76.8,23.6,76.8z"/>
				<path class="st0" d="M92.4,45.1L76.5,45c-1.6,0-3.1-1.1-4.1-2.2l-7.6-8.6c-1.3-1.4-3.5-2.1-5.5-2.1H38.7
					c-1.1-3.9-4.6-6.7-8.9-6.7c-5.1,0-9.2,4.1-9.2,9.2s4.1,9.2,9.2,9.2c3.9,0,7.2-2.4,8.5-5.8h20c1.2,0,2.7,1,3.4,1.9l5.9,7.2
					l-26.9,0.1L35,52.8H18c-1.1-3.8-4.6-6.5-8.8-6.5c-5.1,0-9.2,4.1-9.2,9.2s4.1,9.2,9.2,9.2c3.9,0,7.1-2.4,8.5-5.7l20.6-0.2
					l5.4-5.1h33.7l4.5,6.8l-34.4,0.1l-16.3,15c-1.7-2.4-4.4-3.9-7.5-3.9c-5.1,0-9.2,4.1-9.2,9.2s4.1,9.2,9.2,9.2c4.4,0,8-3,8.9-7.1
					l0,0l6.7-5.9L50,67.5h33.2l21.6,31.7l26-0.1L92.4,45.1z M29.8,38.5c-2.2,0-4-1.8-4-4s1.8-4,4-4s4,1.8,4,4
					C33.7,36.7,31.9,38.5,29.8,38.5z M9.1,59.4c-2.2,0-4-1.8-4-4s1.8-4,4-4s4,1.8,4,4C13.1,57.6,11.3,59.4,9.1,59.4z M23.6,84.8
					c-2.2,0-4-1.8-4-4s1.8-4,4-4s4,1.8,4,4C27.6,83,25.8,84.8,23.6,84.8z"/>
			</g>
			<g>
				<path class="st0" d="M14.6,5.3c-2.2,0-4,1.8-4,4s1.8,4,4,4s4-1.8,4-4C18.6,7,16.8,5.3,14.6,5.3z"/>
				<path class="st0" d="M112.3,3.9c-5-2.3-10.4-3.6-16.1-3.6l-52.3,0l-0.1,6.1H23.4c-1.3-3.7-4.7-6.3-8.7-6.3
					c-5.1,0-9.2,4.1-9.2,9.2s4.1,9.2,9.2,9.2c4,0,7.4-2.6,8.7-6.1h27.4c2-3.9,6.8-5.1,10.3-2.7c3.4,2.4,4,7.4,1,10.5
					c-1.7,1.8-4.1,2.4-6.6,1.9c-2-0.4-3.7-1.8-4.9-3.8H44v10.1h25.2l0.1-7.1h24.1c3.4,0,7.9,0.5,7.9,4.8l-0.1,15.8l0,0
					c0,1.6-1.4,2.2-2.5,3.2l10.7,14.8c9-2.6,13.8-8.8,13.9-17.9l0.1-16.2C123.4,16.5,121.5,8.1,112.3,3.9z M14.6,13.2
					c-2.2,0-4-1.8-4-4s1.8-4,4-4s4,1.8,4,4S16.8,13.2,14.6,13.2z"/>
			</g>
		</g>
	</g>
</g>
</svg>
