<?xml version="1.0" encoding="utf-8"?>
<!-- Generator: Adobe Illustrator 28.1.0, SVG Export Plug-In . SVG Version: 6.00 Build 0)  -->
<svg version="1.1" id="Layer_1" xmlns="http://www.w3.org/2000/svg" xmlns:xlink="http://www.w3.org/1999/xlink" x="0px" y="0px"
	 viewBox="0 0 675 112" style="enable-background:new 0 0 675 112;" xml:space="preserve">
<style type="text/css">
	.st0{clip-path:url(#SVGID_00000130642416973937893240000012014684090708056484_);}
	.st1{fill:#077DDD;}
	.st2{fill:none;}
</style>
<path d="M241.2,24.4h33.6c2.9,0,5.5,0.7,7.9,2.1c2.4,1.4,4.3,3.3,5.7,5.6c1.4,2.4,2.1,5,2.1,7.9v6.4c0,2.9-0.7,5.5-2.1,7.8
	c-1.4,2.3-3.2,4.2-5.6,5.5c-2.4,1.4-5.1,2.1-8,2.1l19,26.2h-11.5l-19-26.2H256v-9.4h18.8c1.8,0,3.2-0.6,4.5-1.8
	c1.2-1.2,1.8-2.7,1.8-4.4v-6.2c0-1.7-0.6-3.2-1.8-4.4c-1.2-1.2-2.7-1.8-4.5-1.8h-24.2V88h-9.4V24.4z M298.6,58.3
	c0-3.1,0.7-5.9,2.2-8.4c1.5-2.5,3.5-4.5,6.1-6c2.5-1.5,5.3-2.3,8.4-2.3h25.8V88h-9.4V51.1h-16.4c-2,0-3.7,0.7-5.1,2.1
	c-1.4,1.4-2.1,3.1-2.1,5.1v12.8c0,2,0.7,3.8,2.1,5.2c1.4,1.4,3.1,2.1,5.1,2.1h11V88h-11c-3.1,0-5.9-0.7-8.4-2.2
	c-2.5-1.5-4.6-3.5-6.1-6.1c-1.5-2.5-2.2-5.3-2.2-8.4V58.3z M348.7,58.4c0-3.1,0.7-5.9,2.2-8.4c1.5-2.5,3.5-4.5,6.1-6
	c2.5-1.5,5.3-2.3,8.4-2.3h11v9.4h-11c-2,0-3.7,0.7-5.1,2.2c-1.4,1.4-2.1,3.2-2.1,5.2v12.8c0,2,0.7,3.7,2.1,5.1
	c1.4,1.4,3.1,2.1,5.1,2.1h16.4V24.4h9.4v54.2c0,2.6-0.9,4.8-2.8,6.7c-1.8,1.8-4.1,2.8-6.7,2.8h-16.4c-3.1,0-5.9-0.7-8.4-2.2
	c-2.5-1.5-4.6-3.5-6.1-6c-1.5-2.5-2.2-5.3-2.2-8.4V58.4z M398.2,29.1c0-1.6,0.6-3,1.7-4.1c1.1-1.1,2.5-1.7,4.1-1.7
	c1.6,0,3,0.6,4.1,1.7c1.1,1.1,1.7,2.5,1.7,4.1c0,1.6-0.6,3-1.7,4.1c-1.1,1.1-2.5,1.7-4.1,1.7c-1.6,0-3-0.6-4.1-1.7
	C398.8,32,398.2,30.7,398.2,29.1z M399.3,41.7h9.5V88h-9.5V41.7z M416.3,58.4c0-3.1,0.7-5.9,2.2-8.4c1.5-2.5,3.5-4.5,6.1-6
	c2.5-1.5,5.3-2.3,8.4-2.3h10.1c3.1,0,5.9,0.8,8.4,2.3c2.5,1.5,4.5,3.5,6,6c1.5,2.5,2.3,5.3,2.3,8.4v12.9c0,3.1-0.8,5.9-2.3,8.4
	c-1.5,2.5-3.5,4.6-6,6.1c-2.5,1.5-5.3,2.2-8.4,2.2h-10.1c-3.1,0-5.9-0.7-8.4-2.2c-2.5-1.5-4.6-3.5-6.1-6.1c-1.5-2.5-2.2-5.3-2.2-8.4
	V58.4z M425.8,71.2c0,2,0.7,3.8,2.1,5.2c1.4,1.4,3.1,2.1,5.1,2.1h10.1c2,0,3.7-0.7,5.1-2.1c1.4-1.5,2.1-3.2,2.1-5.2V58.5
	c0-2-0.7-3.8-2.1-5.2c-1.4-1.5-3.1-2.2-5.1-2.2h-10.1c-2,0-3.7,0.7-5.1,2.2c-1.4,1.4-2.1,3.2-2.1,5.2V71.2z M467.4,39.8
	c0-2.8,0.7-5.4,2.1-7.7c1.4-2.3,3.3-4.2,5.7-5.5c2.4-1.4,5.1-2.1,8-2.1h32.9v9.4h-32.9c-1.7,0-3.2,0.6-4.5,1.8
	c-1.3,1.2-1.9,2.7-1.9,4.4v4.4c0,1.6,0.6,2.9,1.9,4.1c1.3,1.1,2.7,1.7,4.5,1.7h20.3c2.9,0,5.6,0.7,8,2.1c2.4,1.4,4.3,3.2,5.7,5.6
	c1.4,2.3,2.1,4.9,2.1,7.7v6.9c0,2.8-0.7,5.4-2.1,7.8c-1.4,2.3-3.3,4.2-5.7,5.6c-2.4,1.4-5,2.1-8,2.1h-36v-9.4h36
	c1.8,0,3.2-0.6,4.5-1.7c1.3-1.2,1.9-2.6,1.9-4.3v-6.8c0-1.7-0.6-3.1-1.9-4.3c-1.2-1.2-2.7-1.8-4.5-1.8h-20.3c-2.9,0-5.5-0.7-8-2
	c-2.4-1.4-4.3-3.2-5.7-5.5c-1.4-2.3-2.1-4.8-2.1-7.6V39.8z M527.3,24.4h9.4v17.3h14.6c3.2,0,6.1,0.8,8.8,2.3c2.7,1.5,4.8,3.5,6.3,6
	c1.6,2.5,2.4,5.3,2.4,8.4V88h-9.4V58.5c0-2-0.8-3.7-2.4-5.1c-1.6-1.5-3.4-2.2-5.6-2.2h-14.6V88h-9.4V24.4z M576.3,58.4
	c0-3.1,0.7-5.9,2.2-8.4c1.5-2.5,3.5-4.5,6.1-6c2.5-1.5,5.3-2.3,8.4-2.3h10.1c3.1,0,5.9,0.8,8.4,2.3c2.5,1.5,4.5,3.5,6,6
	c1.5,2.5,2.3,5.3,2.3,8.4v12.9c0,3.1-0.8,5.9-2.3,8.4c-1.5,2.5-3.5,4.6-6,6.1c-2.5,1.5-5.3,2.2-8.4,2.2H593c-3.1,0-5.9-0.7-8.4-2.2
	c-2.5-1.5-4.6-3.5-6.1-6.1c-1.5-2.5-2.2-5.3-2.2-8.4V58.4z M585.8,71.2c0,2,0.7,3.8,2.1,5.2c1.4,1.4,3.1,2.1,5.1,2.1h10.1
	c2,0,3.7-0.7,5.1-2.1c1.4-1.5,2.1-3.2,2.1-5.2V58.5c0-2-0.7-3.8-2.1-5.2c-1.4-1.5-3.1-2.2-5.1-2.2H593c-2,0-3.7,0.7-5.1,2.2
	c-1.4,1.4-2.1,3.2-2.1,5.2V71.2z M627,51.1c0-2.6,0.9-4.8,2.8-6.7c1.8-1.8,4.1-2.8,6.7-2.8h16.4c3.1,0,5.9,0.8,8.4,2.3
	c2.5,1.5,4.5,3.5,6,6c1.5,2.5,2.3,5.3,2.3,8.4v13c0,3.1-0.8,5.9-2.3,8.4c-1.5,2.5-3.5,4.6-6,6.1c-2.5,1.5-5.3,2.2-8.4,2.2h-11v-9.4
	h11c2,0,3.7-0.7,5.1-2.1c1.4-1.5,2.1-3.2,2.1-5.2V58.4c0-2-0.7-3.7-2.1-5.1c-1.4-1.4-3.1-2.1-5.1-2.1h-16.4v54.2H627V51.1z"/>
<g>
	<defs>
		<rect id="SVGID_1_" y="5.3" width="210" height="100"/>
	</defs>
	<clipPath id="SVGID_00000016789605501632831860000000397233855157309373_">
		<use xlink:href="#SVGID_1_"  style="overflow:visible;"/>
	</clipPath>
	<g style="clip-path:url(#SVGID_00000016789605501632831860000000397233855157309373_);">
		<path class="st1" d="M182.2,105l-41.9,0l-14-19.6l49.7,0c2.6,0,4.8-0.1,7.3-0.4c4.6-0.6,4.4-6.3,4-9.8c-0.2-1.7-1.4-3.1-2.9-3.7
			c-2.7-1.2-5.4-2.1-8.4-2.8l-29.5-7.7c-7-1.8-14.3-4.8-16.2-12.4c-0.5-2.1-0.9-4.3-0.9-6.5l0-15.7c0-2.6,0.4-5.1,1-7.5
			c2.4-10.2,11.8-13.1,21.4-13.4l55.3,0L196.4,26l-32.1,0l-10,0.2c-4.7,0.6-4.2,6.2-3.9,10c0.2,2.4,1.9,4.1,4.2,4.7l35.4,8.9
			c3.5,0.9,6.7,2.2,9.9,3.7c10.3,4.7,9.7,14.8,9.7,24.3c0,4.2,0.1,8.2-0.8,12.3C206.1,103.2,194.2,105,182.2,105L182.2,105z"/>
		<path class="st1" d="M69.1,105l-25.2,0l0-16.6l8.9-8.1l16.3,0L69.1,105z"/>
		<path class="st1" d="M56.3,24.2c-1.6-0.4-2.6-1.9-2.4-3.3c0.2-1.5,1.6-2.8,3.2-2.7c1.9,0.1,3.3,1.7,3.1,3.4
			C60,23.3,58.3,24.6,56.3,24.2L56.3,24.2z"/>
		<g>
			<path class="st2" d="M9.1,57.3c-2.2,0-4,1.8-4,4c0,2.2,1.8,4,4,4c2.2,0,4-1.8,4-4C13.1,59.1,11.3,57.3,9.1,57.3z"/>
			<path class="st2" d="M33.7,40.4c0-2.2-1.8-4-4-4c-2.2,0-4,1.8-4,4c0,2.2,1.8,4,4,4C31.9,44.4,33.7,42.6,33.7,40.4z"/>
			<path class="st2" d="M23.6,82.7c-2.2,0-4,1.8-4,4c0,2.2,1.8,4,4,4c2.2,0,4-1.8,4-4C27.6,84.5,25.8,82.7,23.6,82.7z"/>
			<path class="st1" d="M92.4,51l-15.9-0.1c-1.6,0-3.1-1.1-4.1-2.2l-7.6-8.6c-1.3-1.4-3.5-2.1-5.5-2.1H38.7
				c-1.1-3.9-4.6-6.7-8.9-6.7c-5.1,0-9.2,4.1-9.2,9.2c0,5.1,4.1,9.2,9.2,9.2c3.9,0,7.2-2.4,8.5-5.8l20,0c1.2,0,2.7,1,3.4,1.9
				l5.9,7.2l-26.9,0.1L35,58.7H18c-1.1-3.8-4.6-6.5-8.8-6.5c-5.1,0-9.2,4.1-9.2,9.2c0,5.1,4.1,9.2,9.2,9.2c3.9,0,7.1-2.4,8.5-5.7
				l20.6-0.2l5.4-5.1l33.7,0l4.5,6.8l-34.4,0.1L31.2,81.5c-1.7-2.4-4.4-3.9-7.5-3.9c-5.1,0-9.2,4.1-9.2,9.2c0,5.1,4.1,9.2,9.2,9.2
				c4.4,0,8-3,8.9-7.1c0,0,0,0,0,0l6.7-5.9l10.7-9.6l33.2,0l21.6,31.7l26-0.1L92.4,51z M29.8,44.4c-2.2,0-4-1.8-4-4c0-2.2,1.8-4,4-4
				c2.2,0,4,1.8,4,4C33.7,42.6,31.9,44.4,29.8,44.4z M9.1,65.3c-2.2,0-4-1.8-4-4c0-2.2,1.8-4,4-4c2.2,0,4,1.8,4,4
				C13.1,63.5,11.3,65.3,9.1,65.3z M23.6,90.7c-2.2,0-4-1.8-4-4c0-2.2,1.8-4,4-4c2.2,0,4,1.8,4,4C27.6,88.9,25.8,90.7,23.6,90.7z"/>
		</g>
		<g>
			<path class="st2" d="M14.6,11.2c-2.2,0-4,1.8-4,4c0,2.2,1.8,4,4,4c2.2,0,4-1.8,4-4C18.6,12.9,16.8,11.2,14.6,11.2z"/>
			<path class="st1" d="M112.3,9.8c-5-2.3-10.4-3.6-16.1-3.6L43.9,6.2l-0.1,6.1H23.4C22.1,8.6,18.7,6,14.7,6c-5.1,0-9.2,4.1-9.2,9.2
				c0,5.1,4.1,9.2,9.2,9.2c4,0,7.4-2.6,8.7-6.1l27.4,0c2-3.9,6.8-5.1,10.3-2.7c3.4,2.4,4,7.4,1,10.5c-1.7,1.8-4.1,2.4-6.6,1.9
				c-2-0.4-3.7-1.8-4.9-3.8l-6.6,0l0,10.1l25.2,0l0.1-7.1l24.1,0c3.4,0,7.9,0.5,7.9,4.8l-0.1,15.8h0c0,1.6-1.4,2.2-2.5,3.2
				l10.7,14.8c9-2.6,13.8-8.8,13.9-17.9l0.1-16.2C123.4,22.4,121.5,14,112.3,9.8z M14.6,19.1c-2.2,0-4-1.8-4-4c0-2.2,1.8-4,4-4
				c2.2,0,4,1.8,4,4C18.6,17.3,16.8,19.1,14.6,19.1z"/>
		</g>
	</g>
</g>
</svg>
