<?xml version="1.0" encoding="utf-8"?>
<!-- Generator: Adobe Illustrator 28.1.0, SVG Export Plug-In . SVG Version: 6.00 Build 0)  -->
<svg version="1.1" id="Layer_1" xmlns="http://www.w3.org/2000/svg" xmlns:xlink="http://www.w3.org/1999/xlink" x="0px" y="0px"
	 viewBox="0 0 210 210" style="enable-background:new 0 0 210 210;" xml:space="preserve">
<style type="text/css">
	.st0{fill:#077DDD;}
	.st1{fill:#FFFFFF;stroke:#077DDD;stroke-miterlimit:10;}
</style>
<rect y="0" class="st0" width="210" height="210"/>
<g>
	<g>
		<g>
			<path class="st1" d="M169.1,145.6h-34.8l-11.6-16.3H164c2.2,0,4-0.1,6.1-0.3c3.8-0.5,3.7-5.2,3.3-8.1c-0.2-1.4-1.2-2.6-2.4-3.1
				c-2.2-1-4.5-1.7-7-2.3l-24.5-6.4c-5.8-1.5-11.9-4-13.5-10.3c-0.4-1.7-0.7-3.6-0.7-5.4V80.3c0-2.2,0.3-4.2,0.8-6.2
				c2-8.5,9.8-10.9,17.8-11.1h46l-8.9,17h-26.7l-8.3,0.2c-3.9,0.5-3.5,5.2-3.2,8.3c0.2,2,1.6,3.4,3.5,3.9l29.4,7.4
				c2.9,0.7,5.6,1.8,8.2,3.1c8.6,3.9,8.1,12.3,8.1,20.2c0,3.5,0.1,6.8-0.7,10.2C189,144.1,179.1,145.6,169.1,145.6L169.1,145.6z"/>
			<path class="st1" d="M75.1,145.6H54.2v-13.8l7.4-6.7h13.5L75.1,145.6z"/>
			<path class="st1" d="M64.5,78.4c-1.3-0.3-2.2-1.6-2-2.7c0.2-1.2,1.3-2.3,2.7-2.2c1.6,0.1,2.7,1.4,2.6,2.8
				C67.6,77.7,66.1,78.8,64.5,78.4L64.5,78.4z"/>
			<g>
				<path class="st1" d="M25.2,105.9c-1.8,0-3.3,1.5-3.3,3.3c0,1.8,1.5,3.3,3.3,3.3s3.3-1.5,3.3-3.3
					C28.6,107.4,27.1,105.9,25.2,105.9z"/>
				<path class="st1" d="M45.7,91.9c0-1.8-1.5-3.3-3.3-3.3S39,90.1,39,91.9c0,1.8,1.5,3.3,3.3,3.3C44.2,95.2,45.7,93.7,45.7,91.9z"
					/>
				<path class="st1" d="M37.3,127.1c-1.8,0-3.3,1.5-3.3,3.3c0,1.8,1.5,3.3,3.3,3.3s3.3-1.5,3.3-3.3
					C40.6,128.6,39.1,127.1,37.3,127.1z"/>
				<path class="st1" d="M94.5,100.7l-13.2-0.1c-1.3,0-2.6-0.9-3.4-1.8l-6.3-7.1c-1.1-1.2-2.9-1.7-4.6-1.7H49.9
					c-0.9-3.2-3.8-5.6-7.4-5.6c-4.2,0-7.6,3.4-7.6,7.6s3.4,7.6,7.6,7.6c3.2,0,6-2,7.1-4.8h16.6c1,0,2.2,0.8,2.8,1.6l4.9,6l-22.4,0.1
					l-4.7,4.7H32.6c-0.9-3.2-3.8-5.4-7.3-5.4c-4.2,0-7.6,3.4-7.6,7.6s3.4,7.6,7.6,7.6c3.2,0,5.9-2,7.1-4.7l17.1-0.2l4.5-4.2h28
					l3.7,5.7l-28.6,0.1l-13.5,12.5c-1.4-2-3.7-3.2-6.2-3.2c-4.2,0-7.6,3.4-7.6,7.6c0,4.2,3.4,7.6,7.6,7.6c3.7,0,6.7-2.5,7.4-5.9l0,0
					l5.6-4.9l8.9-8h27.6l18,26.4l21.6-0.1L94.5,100.7z M42.5,95.2c-1.8,0-3.3-1.5-3.3-3.3c0-1.8,1.5-3.3,3.3-3.3s3.3,1.5,3.3,3.3
					C45.7,93.7,44.2,95.2,42.5,95.2z M25.2,112.6c-1.8,0-3.3-1.5-3.3-3.3c0-1.8,1.5-3.3,3.3-3.3s3.3,1.5,3.3,3.3
					C28.6,111.1,27.1,112.6,25.2,112.6z M37.3,133.7c-1.8,0-3.3-1.5-3.3-3.3c0-1.8,1.5-3.3,3.3-3.3s3.3,1.5,3.3,3.3
					S39.1,133.7,37.3,133.7z"/>
			</g>
			<g>
				<path class="st1" d="M29.8,67.6c-1.8,0-3.3,1.5-3.3,3.3s1.5,3.3,3.3,3.3c1.8,0,3.3-1.5,3.3-3.3C33.1,69,31.6,67.6,29.8,67.6z"/>
				<path class="st1" d="M111,66.5c-4.2-1.9-8.6-3-13.4-3H54.2l-0.1,5.1h-17c-1.1-3.1-3.9-5.2-7.2-5.2c-4.2,0-7.6,3.4-7.6,7.6
					s3.4,7.6,7.6,7.6c3.3,0,6.2-2.2,7.2-5.1h22.8c1.7-3.2,5.7-4.2,8.6-2.2c2.8,2,3.3,6.2,0.8,8.7c-1.4,1.5-3.4,2-5.5,1.6
					c-1.7-0.3-3.1-1.5-4.1-3.2h-5.5v8.4h20.9l0.1-5.9h20c2.8,0,6.6,0.4,6.6,4L101.8,98l0,0c0,1.3-1.2,1.8-2.1,2.7l8.9,12.3
					c7.5-2.2,11.5-7.3,11.6-14.9l0.1-13.5C120.3,76.9,118.7,69.9,111,66.5z M29.8,74.2c-1.8,0-3.3-1.5-3.3-3.3
					c0-1.8,1.5-3.3,3.3-3.3c1.8,0,3.3,1.5,3.3,3.3S31.6,74.2,29.8,74.2z"/>
			</g>
		</g>
	</g>
</g>
</svg>
