<?xml version="1.0" encoding="UTF-8"?>
<svg id="Layer_1" xmlns="http://www.w3.org/2000/svg" version="1.1" viewBox="0 0 715.2 143.3">
  <!-- Generator: Adobe Illustrator 29.3.1, SVG Export Plug-In . SVG Version: 2.1.0 Build 151)  -->
  <defs>
    <style>
      .st0 {
        fill: #de2126;
      }

      .st1 {
        stroke: #ed1c24;
        stroke-width: 5px;
      }

      .st1, .st2 {
        fill: none;
        stroke-miterlimit: 10;
      }

      .st3 {
        fill: #fff;
      }

      .st4 {
        fill: #206ab4;
      }

      .st2 {
        stroke: #206ab4;
        stroke-width: 8px;
      }
    </style>
  </defs>
  <g>
    <path class="st0" d="M196.5,6.4h12c1.9,0,3.4,1.5,3.4,3.4v12c0,1.9-1.5,3.4-3.4,3.4h-12c-1.9,0-3.4-1.5-3.4-3.4v-12c0-1.9,1.5-3.4,3.4-3.4Z"/>
    <g>
      <path class="st0" d="M217.7,11c0,.5-.3.9-.6.9h-20.1c-.4,0-.6-.4-.6-.9h0c0-.5.3-.9.6-.9h20.1c.4,0,.6.4.6.9h0Z"/>
      <path class="st0" d="M217.7,20.6c0,.5-.3.9-.6.9h-20.1c-.4,0-.6-.4-.6-.9h0c0-.5.3-.9.6-.9h20.1c.4,0,.6.4.6.9h0Z"/>
    </g>
    <path class="st1" d="M54.1,15.8c-24.7,0-44.7,20-44.7,44.7"/>
    <line class="st1" x1="54.1" y1="15.8" x2="196.9" y2="15.8"/>
  </g>
  <g>
    <g>
      <rect class="st4" x="527.7" y="120.8" width="18.8" height="18.8" rx="3.4" ry="3.4"/>
      <g>
        <path class="st3" d="M524.8,135.1c0-.5.1-.9.3-.9h9.9c.2,0,.3.4.3.9h0c0,.5-.1.9-.3.9h-9.9c-.2,0-.3-.4-.3-.9h0Z"/>
        <path class="st3" d="M524.8,125.4c0-.5.1-.9.3-.9h9.9c.2,0,.3.4.3.9h0c0,.5-.1.9-.3.9h-9.9c-.2,0-.3-.4-.3-.9h0Z"/>
      </g>
    </g>
    <path class="st2" d="M659.8,130.2c24.7,0,44.7-20,44.7-44.7"/>
    <line class="st2" x1="659.8" y1="130.2" x2="541.2" y2="130.2"/>
  </g>
  <g>
    <path class="st0" d="M107.3,70.1c0,3-1.4,5.5-4.2,7.6-1.4,1-3,1.5-4.9,1.5l9.1,24.2h-13.6l-7.6-24.2h-33.3v24.2h-12.1v-24.2h-12.1l6.1-12.1h6v-24.2h57.5c3.4,0,6,1.5,7.8,4.4.9,1.4,1.3,3,1.3,4.7v18.2ZM92.2,67c2,0,2.9-1,2.9-3v-6c0-.9-.3-1.6-.9-2.2-.6-.6-1.3-.8-2.2-.8h-39.3v12.1h39.4Z"/>
    <path class="st0" d="M120.3,103.3v-24.2h-12.1l6.1-12.1h6v-15.1c0-3.8,1.1-6.4,3.2-7.8,1.3-.9,3.3-1.3,5.9-1.3h48.4c3.4,0,6,1.5,7.8,4.4.9,1.4,1.3,3,1.3,4.7v51.4h-12.1v-24.2h-42.4v24.2h-12.1ZM174.8,67v-9.1c0-.9-.3-1.6-.9-2.2-.6-.6-1.3-.8-2.2-.8h-36.3c-2,0-3,1-3,3v9.1h42.4Z"/>
    <path class="st0" d="M192.7,42.8h57.5c3.3,0,5.6.7,7,2.1,1.4,1.4,2.1,3.7,2.1,7v42.4c0,3.8-1.1,6.4-3.2,7.8-1.3.9-3.3,1.3-5.8,1.3h-57.5v-60.5ZM204.8,55v36.3h39.3c2,0,3-1,3-3v-30.3c0-2-1-3-3-3h-39.3Z"/>
    <path class="st0" d="M277.3,103.3h-12.1v-60.5h12.1v60.5Z"/>
    <path class="st0" d="M340.6,103.3h-48.4c-4.7,0-7.6-1.5-8.5-4.5-.4-1.3-.6-2.8-.6-4.6v-42.4c0-3.8,1.1-6.4,3.2-7.8,1.3-.9,3.3-1.3,5.9-1.3h48.4c3.3,0,5.6.7,7,2.1,1.4,1.4,2.1,3.7,2.1,7v42.4c0,3.8-1.1,6.4-3.2,7.8-1.3.9-3.3,1.3-5.8,1.3ZM334.5,91.2c2,0,3-1,3-3v-30.3c0-2-1-3-3-3h-36.3c-2,0-3,1-3,3v30.3c0,2,1,3,3,3h36.3Z"/>
  </g>
  <g>
    <path class="st4" d="M375.9,91.2h51.5c2,0,2.9-1,2.9-3v-6c0-2-1-3-3-3h-48.4c-2,0-3-1-3-3v-24.2c0-3.8,1.1-6.4,3.2-7.8,1.3-.9,3.3-1.3,5.9-1.3h57.5v12.1h-51.5c-2,0-3,1-3,3v6.1c0,2,1,3,2.9,3h42.5c6.1,0,9.1,3,9.1,9.1v18.2c0,3-1.4,5.6-4.2,7.6-1.4,1-3,1.5-4.9,1.5h-57.5v-12.1Z"/>
    <path class="st4" d="M523.1,42.8v60.5h-12.1v-24.2h-42.4v24.2h-12.1v-24.2h-12.1l6.1-12.1h6v-24.2h12.1v24.2h42.4v-24.2h12.1Z"/>
    <path class="st4" d="M586.4,103.3h-48.4c-4.7,0-7.6-1.5-8.5-4.5-.4-1.3-.6-2.8-.6-4.6v-42.4c0-3.8,1.1-6.4,3.2-7.8,1.3-.9,3.3-1.3,5.9-1.3h48.4c3.3,0,5.6.7,7,2.1,1.4,1.4,2.1,3.7,2.1,7v42.4c0,3.8-1.1,6.4-3.2,7.8-1.3.9-3.3,1.3-5.8,1.3ZM580.3,91.2c2,0,3-1,3-3v-30.3c0-2-1-3-3-3h-36.3c-2,0-3,1-3,3v30.3c0,2,1,3,3,3h36.3Z"/>
    <path class="st4" d="M611.5,103.3v-24.2h-12.1l6.1-12.1h6v-24.2h57.5c3.4,0,6,1.5,7.8,4.4.9,1.4,1.3,3,1.3,4.7v18.2c0,3-1.4,5.5-4.2,7.6-1.4,1-3,1.5-4.9,1.5h-45.4v24.2h-12.1ZM666,58c0-.9-.3-1.6-.9-2.2s-1.3-.8-2.2-.8h-39.3v12.1h39.4c2,0,2.9-1,2.9-3v-6Z"/>
  </g>
</svg>